<?xml version="1.0" encoding="UTF-8"?>
<svg id="Ebene_2" data-name="Ebene 2" xmlns="http://www.w3.org/2000/svg" viewBox="0 0 120.02 96.38">
  <defs>
    <style>
      .cls-1 {
        fill: lime;
      }

      .cls-1, .cls-2 {
        stroke-width: 0px;
      }

      .cls-2 {
        fill: #111336;
      }
    </style>
  </defs>
  <g id="Ebene_1-2" data-name="Ebene 1">
    <g>
      <g>
        <path class="cls-1" d="M75.19,67.75h-28.86c-1.6,0-2.9,1.3-2.9,2.9s1.3,2.9,2.9,2.9h28.86c1.6,0,2.9-1.3,2.9-2.9s-1.3-2.9-2.9-2.9Z"/>
        <path class="cls-1" d="M43.42,55.83c0,1.6,1.3,2.9,2.9,2.9h28.86c1.6,0,2.9-1.3,2.9-2.9s-1.3-2.9-2.9-2.9h-28.86c-1.6,0-2.9,1.3-2.9,2.9Z"/>
        <path class="cls-1" d="M31.66,53.86l-9.7,12.01-4.49-4.77c-1.14-1.21-3.03-1.26-4.24-.13-1.21,1.14-1.26,3.03-.13,4.24l6.84,7.27c.57.6,1.36.94,2.18.94.04,0,.08,0,.11,0,.87-.03,1.68-.44,2.22-1.11l11.86-14.68c1.04-1.29.84-3.18-.45-4.22s-3.18-.84-4.22.45Z"/>
        <path class="cls-1" d="M94.54,59.04c-1.66,0-3,1.34-3,3v24.88c0,1.91-1.55,3.46-3.46,3.46H9.46c-1.91,0-3.46-1.55-3.46-3.46v-51.46c0-1.91,1.55-3.46,3.46-3.46h47.27c1.66,0,3-1.34,3-3s-1.34-3-3-3H9.46c-5.22,0-9.46,4.24-9.46,9.46v51.46c0,5.21,4.25,9.46,9.46,9.46h78.61c5.22,0,9.46-4.24,9.46-9.46v-24.88c0-1.66-1.34-3-3-3Z"/>
      </g>
      <g>
        <path class="cls-2" d="M94.77,0c-13.92,0-25.25,11.33-25.25,25.25s11.33,25.25,25.25,25.25,25.25-11.33,25.25-25.25S108.69,0,94.77,0ZM94.77,44.5c-10.61,0-19.25-8.64-19.25-19.25s8.64-19.25,19.25-19.25,19.25,8.64,19.25,19.25-8.64,19.25-19.25,19.25Z"/>
        <path class="cls-2" d="M94.77,31.12c-1.97,0-3.57,1.56-3.57,3.57s1.6,3.57,3.57,3.57,3.57-1.6,3.57-3.57-1.56-3.57-3.57-3.57Z"/>
        <path class="cls-2" d="M94.77,12.25c-2.75,0-4.05,1.97-4.05,5.27,0,1.45.37,3.01.63,3.97l1.45,5.5c.26.97.56,1.97,1.97,1.97s1.75-1,2.01-1.97l1.41-5.5c.26-.97.63-2.53.63-3.97,0-3.31-1.3-5.27-4.05-5.27Z"/>
      </g>
    </g>
  </g>
</svg>