<?xml version="1.0" encoding="UTF-8"?>
<svg id="Ebene_2" data-name="Ebene 2" xmlns="http://www.w3.org/2000/svg" viewBox="0 0 34.04 24.53">
  <defs>
    <style>
      .cls-1 {
        fill: lime;
      }

      .cls-1, .cls-2 {
        stroke-width: 0px;
      }

      .cls-2 {
        fill: #111336;
      }
    </style>
  </defs>
  <g id="Ebene_1-2" data-name="Ebene 1">
    <g>
      <path class="cls-1" d="M30.94,24.53H3.1c-1.71,0-3.1-1.39-3.1-3.1V3.1C0,1.39,1.39,0,3.1,0h27.84c1.71,0,3.1,1.39,3.1,3.1v18.33c0,1.71-1.39,3.1-3.1,3.1ZM3.1,2c-.61,0-1.1.49-1.1,1.1v18.33c0,.61.49,1.1,1.1,1.1h27.84c.61,0,1.1-.49,1.1-1.1V3.1c0-.61-.49-1.1-1.1-1.1H3.1Z"/>
      <g>
        <path class="cls-2" d="M8.03,14.49c-.83,0-1.5.66-1.5,1.5s.67,1.5,1.5,1.5,1.5-.67,1.5-1.5-.66-1.5-1.5-1.5Z"/>
        <path class="cls-2" d="M8.03,6.56c-1.16,0-1.7.83-1.7,2.22,0,.61.16,1.26.27,1.67l.61,2.31c.11.41.23.83.83.83s.73-.42.84-.83l.59-2.31c.11-.41.27-1.06.27-1.67,0-1.39-.55-2.22-1.7-2.22Z"/>
        <path class="cls-2" d="M26.64,13.52h-12.49c-.55,0-1,.45-1,1s.45,1,1,1h12.49c.55,0,1-.45,1-1s-.45-1-1-1Z"/>
        <path class="cls-2" d="M14.15,11.08h12.49c.55,0,1-.45,1-1s-.45-1-1-1h-12.49c-.55,0-1,.45-1,1s.45,1,1,1Z"/>
      </g>
    </g>
  </g>
</svg>